<svg width="106" height="106" viewBox="0 0 106 106" fill="none" xmlns="http://www.w3.org/2000/svg">
<path d="M103.41 43.691L47.5198 9.70103C45.2498 8.32103 42.2998 9.04103 40.9198 11.311L33.2598 23.901L91.0198 40.661C93.5698 41.401 95.0398 44.071 94.2998 46.621L82.5098 87.241C82.6298 87.091 82.7498 86.931 82.8498 86.761L105.02 50.301C106.4 48.031 105.68 45.081 103.41 43.701V43.691Z" fill="#5278B9"/>
<path d="M78.3 90.2307L90.19 49.2507C90.93 46.7007 89.46 44.0306 86.91 43.2906L24.0801 25.0607C21.5301 24.3207 18.8601 25.7907 18.1201 28.3407L14.3101 41.4907H73.5001C76.1501 41.4907 78.3101 43.6407 78.3101 46.3007V90.2407L78.3 90.2307Z" fill="#37548C"/>
<path d="M70.23 44.8311H4.81C2.16 44.8311 0 46.9811 0 49.6411V92.3111C0 94.9611 2.15 97.121 4.81 97.121H70.23C72.88 97.121 75.04 94.9711 75.04 92.3111V49.6411C75.04 46.9911 72.89 44.8311 70.23 44.8311ZM68.59 93.7211C66.66 93.7211 65.1 92.161 65.1 90.231C65.1 88.301 66.66 86.7411 68.59 86.7411C70.52 86.7411 72.08 88.301 72.08 90.231C72.08 92.161 70.52 93.7211 68.59 93.7211Z" fill="#192941"/>
</svg>
