<svg width="106" height="106" viewBox="0 0 106 106" fill="none" xmlns="http://www.w3.org/2000/svg">
<path d="M103.41 43.691L47.5198 9.70104C45.2498 8.32104 42.2998 9.04102 40.9198 11.311L33.2598 23.901L91.0198 40.661C93.5698 41.401 95.0398 44.071 94.2998 46.621L82.5098 87.241C82.6298 87.091 82.7498 86.931 82.8498 86.761L105.02 50.301C106.4 48.031 105.68 45.081 103.41 43.701V43.691Z" fill="#37548C"/>
<path d="M78.3001 90.2414L90.1901 49.2614C90.9301 46.7114 89.4601 44.0414 86.9101 43.3014L24.0801 25.0714C21.5301 24.3314 18.8601 25.8014 18.1201 28.3514L14.3101 41.5014H73.5001C76.1501 41.5014 78.3101 43.6514 78.3101 46.3114V90.2514L78.3001 90.2414Z" fill="#5278B9"/>
<path d="M70.23 44.8311H4.81C2.16 44.8311 0 46.9811 0 49.6411V92.311C0 94.961 2.15 97.121 4.81 97.121H70.23C72.88 97.121 75.04 94.971 75.04 92.311V49.6411C75.04 46.9911 72.89 44.8311 70.23 44.8311ZM68.59 93.731C66.66 93.731 65.1 92.1711 65.1 90.2411C65.1 88.3111 66.66 86.751 68.59 86.751C70.52 86.751 72.08 88.3111 72.08 90.2411C72.08 92.1711 70.52 93.731 68.59 93.731Z" fill="white"/>
</svg>
