<svg width="448" height="89" viewBox="0 0 448 89" fill="none" xmlns="http://www.w3.org/2000/svg">
<path d="M103.41 34.691L47.5198 0.701032C45.2498 -0.678968 42.2998 0.0410328 40.9198 2.31103L33.2598 14.901L91.0198 31.661C93.5698 32.401 95.0398 35.071 94.2998 37.621L82.5098 78.241C82.6298 78.091 82.7498 77.931 82.8498 77.761L105.02 41.301C106.4 39.031 105.68 36.081 103.41 34.701V34.691Z" fill="#5278B9"/>
<path d="M78.3 81.2307L90.19 40.2507C90.93 37.7007 89.4601 35.0306 86.91 34.2906L24.0801 16.0607C21.5301 15.3207 18.8601 16.7907 18.1201 19.3407L14.3101 32.4907H73.5001C76.1501 32.4907 78.3101 34.6407 78.3101 37.3007V81.2407L78.3 81.2307Z" fill="#37548C"/>
<path d="M70.23 35.8311H4.81C2.16 35.8311 0 37.9811 0 40.6411V83.3111C0 85.9611 2.15 88.121 4.81 88.121H70.23C72.88 88.121 75.04 85.9711 75.04 83.3111V40.6411C75.04 37.9911 72.89 35.8311 70.23 35.8311ZM68.59 84.7211C66.66 84.7211 65.1 83.161 65.1 81.231C65.1 79.301 66.66 77.7411 68.59 77.7411C70.52 77.7411 72.08 79.301 72.08 81.231C72.08 83.161 70.52 84.7211 68.59 84.7211Z" fill="#192941"/>
<path d="M139.993 67V29.752H126.425V21.56H163.417V29.752H149.785V67H139.993ZM178.556 67.768C175.058 67.768 172.007 67.0427 169.404 65.592C166.844 64.0987 164.839 62.008 163.388 59.32C161.98 56.632 161.276 53.4747 161.276 49.848C161.276 46.2213 161.98 43.0853 163.388 40.44C164.839 37.752 166.844 35.6613 169.404 34.168C171.964 32.6747 174.994 31.928 178.492 31.928C181.906 31.928 184.871 32.6747 187.388 34.168C189.906 35.6613 191.847 37.7947 193.212 40.568C194.62 43.3413 195.324 46.648 195.324 50.488V52.408H171.196C171.324 55.1387 172.05 57.1653 173.372 58.488C174.738 59.8107 176.53 60.472 178.748 60.472C180.37 60.472 181.714 60.1307 182.78 59.448C183.89 58.7653 184.679 57.72 185.148 56.312L194.812 56.888C193.916 60.3013 192.018 62.968 189.116 64.888C186.215 66.808 182.695 67.768 178.556 67.768ZM171.196 46.52H185.468C185.34 44.0027 184.636 42.1253 183.356 40.888C182.119 39.6507 180.498 39.032 178.492 39.032C176.487 39.032 174.823 39.6933 173.5 41.016C172.22 42.296 171.452 44.1307 171.196 46.52ZM215.913 67.768C212.372 67.768 209.407 67.2773 207.017 66.296C204.628 65.272 202.793 63.9067 201.513 62.2C200.276 60.4507 199.572 58.4453 199.401 56.184L209.129 55.864C209.428 57.4853 210.111 58.744 211.177 59.64C212.244 60.536 213.823 60.984 215.913 60.984C217.62 60.984 218.943 60.7067 219.881 60.152C220.863 59.5973 221.353 58.744 221.353 57.592C221.353 56.8667 221.183 56.2693 220.841 55.8C220.5 55.288 219.817 54.8613 218.793 54.52C217.812 54.136 216.34 53.7947 214.377 53.496C210.751 52.856 207.913 52.1093 205.865 51.256C203.817 50.4027 202.367 49.2933 201.513 47.928C200.66 46.5627 200.233 44.8987 200.233 42.936C200.233 39.6507 201.492 37.0053 204.009 35C206.569 32.952 210.388 31.928 215.465 31.928C218.708 31.928 221.417 32.44 223.593 33.464C225.812 34.488 227.519 35.896 228.713 37.688C229.951 39.4373 230.719 41.4427 231.017 43.704L221.353 44.088C221.225 42.9787 220.884 42.04 220.329 41.272C219.817 40.4613 219.156 39.8427 218.345 39.416C217.535 38.9467 216.553 38.712 215.401 38.712C213.695 38.712 212.372 39.0747 211.433 39.8C210.537 40.4827 210.089 41.4 210.089 42.552C210.089 43.4053 210.281 44.1093 210.665 44.664C211.092 45.176 211.775 45.6027 212.713 45.944C213.652 46.2853 214.911 46.5627 216.489 46.776C220.159 47.288 223.06 48.0133 225.193 48.952C227.369 49.848 228.927 50.9787 229.865 52.344C230.804 53.7093 231.273 55.3947 231.273 57.4C231.273 59.6187 230.633 61.496 229.353 63.032C228.073 64.568 226.281 65.7413 223.977 66.552C221.716 67.3627 219.028 67.768 215.913 67.768ZM250.34 67C246.799 67 244.196 66.1893 242.532 64.568C240.868 62.904 240.036 60.28 240.036 56.696V24.632H249.636V55.544C249.636 57.208 249.978 58.3387 250.66 58.936C251.386 59.5333 252.452 59.832 253.86 59.832H258.66V67H250.34ZM234.532 39.864V32.696H258.66V39.864H234.532ZM279.309 67.768C275.811 67.768 272.76 67.0427 270.157 65.592C267.555 64.0987 265.528 62.008 264.077 59.32C262.627 56.632 261.901 53.4747 261.901 49.848C261.901 46.2213 262.627 43.0853 264.077 40.44C265.528 37.752 267.555 35.6613 270.157 34.168C272.76 32.6747 275.811 31.928 279.309 31.928C282.808 31.928 285.859 32.6747 288.461 34.168C291.064 35.6613 293.091 37.752 294.541 40.44C295.992 43.0853 296.717 46.2213 296.717 49.848C296.717 53.4747 295.992 56.632 294.541 59.32C293.091 62.008 291.064 64.0987 288.461 65.592C285.859 67.0427 282.808 67.768 279.309 67.768ZM279.309 60.408C281.699 60.408 283.555 59.4907 284.877 57.656C286.2 55.7787 286.861 53.176 286.861 49.848C286.861 46.52 286.2 43.9387 284.877 42.104C283.555 40.2267 281.699 39.288 279.309 39.288C276.92 39.288 275.064 40.2267 273.741 42.104C272.419 43.9387 271.757 46.52 271.757 49.848C271.757 53.176 272.419 55.7787 273.741 57.656C275.064 59.4907 276.92 60.408 279.309 60.408ZM308.741 67L298.565 32.696H308.229L314.117 55.928L320.453 32.696H328.261L334.597 55.928L340.549 32.696H350.213L340.037 67H330.693L324.357 45.56L318.021 67H308.741ZM354.32 67V32.696H362.96L363.344 42.744L362.128 42.424C362.469 39.864 363.152 37.816 364.176 36.28C365.242 34.744 366.565 33.6347 368.144 32.952C369.722 32.2693 371.45 31.928 373.328 31.928C375.802 31.928 377.893 32.4613 379.6 33.528C381.349 34.5947 382.672 36.1093 383.568 38.072C384.506 39.992 384.976 42.2747 384.976 44.92V67H375.376V48.12C375.376 46.2853 375.226 44.728 374.928 43.448C374.629 42.168 374.096 41.208 373.328 40.568C372.56 39.8853 371.493 39.544 370.128 39.544C368.122 39.544 366.586 40.2907 365.52 41.784C364.453 43.2347 363.92 45.3467 363.92 48.12V67H354.32ZM392.882 67V32.696H402.482V67H392.882ZM392.69 28.472V20.792H402.61V28.472H392.69ZM410.007 67V21.56H419.607V46.776L432.343 32.696H443.863L430.551 46.84L444.247 67H433.751L424.343 52.28L419.607 57.336V67H410.007Z" fill="#192941"/>
</svg>
