<svg width="121" height="100" viewBox="0 0 121 100" fill="none" xmlns="http://www.w3.org/2000/svg">
<path d="M117.45 39.3627L53.9647 0.793576C51.385 -0.766757 48.0419 0.0423047 46.4686 2.61974L37.7695 16.9055L103.371 35.9184C106.263 36.7621 107.941 39.7903 107.096 42.6798L93.7122 88.7732C93.851 88.5999 93.9898 88.4265 94.094 88.23L119.277 46.8523C120.839 44.2749 120.029 40.9346 117.45 39.3627Z" fill="#5278B9"/>
<path d="M88.9229 92.1713L102.423 45.6734C103.267 42.7839 101.59 39.7557 98.6978 38.912L27.3466 18.2231C24.4546 17.3794 21.4238 19.0553 20.5793 21.9448L16.2529 36.8662H83.4744C86.4821 36.8662 88.9345 39.3049 88.9345 42.3216V92.1829L88.9229 92.1713Z" fill="#37558D"/>
<path d="M79.7611 40.6572H5.46008C2.45241 40.6572 0 43.096 0 46.1126V94.5292C0 97.5342 2.44084 99.9846 5.46008 99.9846H79.7611C82.7688 99.9846 85.2212 97.5458 85.2212 94.5292V46.1126C85.2212 43.1075 82.7804 40.6572 79.7611 40.6572ZM77.8987 96.1357C75.7123 96.1357 73.9309 94.3674 73.9309 92.1713C73.9309 89.9753 75.7008 88.2069 77.8987 88.2069C80.0966 88.2069 81.8665 89.9753 81.8665 92.1713C81.8665 94.3674 80.0966 96.1357 77.8987 96.1357Z" fill="#192941"/>
</svg>
